<?xml version="1.0" encoding="UTF-8" standalone="no"?>
<svg
   xmlns:dc="http://purl.org/dc/elements/1.1/"
   xmlns:cc="http://creativecommons.org/ns#"
   xmlns:rdf="http://www.w3.org/1999/02/22-rdf-syntax-ns#"
   xmlns:svg="http://www.w3.org/2000/svg"
   xmlns="http://www.w3.org/2000/svg"
   xmlns:xlink="http://www.w3.org/1999/xlink"
   xmlns:sodipodi="http://sodipodi.sourceforge.net/DTD/sodipodi-0.dtd"
   xmlns:inkscape="http://www.inkscape.org/namespaces/inkscape"
   width="48.00000000000001"
   height="48.00000000000001"
   version="1.1"
   id="svg4072"
   sodipodi:docname="icon.svg"
   inkscape:version="0.92.4 (5da689c313, 2019-01-14)">
  <metadata
     id="metadata4076">
    <rdf:RDF>
      <cc:Work
         rdf:about="">
        <dc:format>image/svg+xml</dc:format>
        <dc:type
           rdf:resource="http://purl.org/dc/dcmitype/StillImage" />
        <dc:title></dc:title>
      </cc:Work>
    </rdf:RDF>
  </metadata>
  <sodipodi:namedview
     pagecolor="#ffffff"
     bordercolor="#666666"
     borderopacity="1"
     objecttolerance="10"
     gridtolerance="10"
     guidetolerance="10"
     inkscape:pageopacity="0"
     inkscape:pageshadow="2"
     inkscape:window-width="2560"
     inkscape:window-height="1017"
     id="namedview4074"
     showgrid="false"
     showguides="true"
     inkscape:guide-bbox="true"
     inkscape:zoom="24.98444"
     inkscape:cx="17.419597"
     inkscape:cy="9.8052732"
     inkscape:window-x="-8"
     inkscape:window-y="-8"
     inkscape:window-maximized="1"
     inkscape:current-layer="svg4072" />
  <defs
     id="defs4055">
    <linearGradient
       inkscape:collect="always"
       id="linearGradient5236">
      <stop
         style="stop-color:#474646;stop-opacity:1;"
         offset="0"
         id="stop5232" />
      <stop
         style="stop-color:#474646;stop-opacity:0;"
         offset="1"
         id="stop5234" />
    </linearGradient>
    <linearGradient
       id="linearGradient2200">
      <stop
         id="stop2202"
         offset="0"
         stop-color="#ffffff" />
      <stop
         id="stop2204"
         offset="1"
         stop-color="#ffffff"
         stop-opacity="0" />
    </linearGradient>
    <linearGradient
       id="linearGradient2087">
      <stop
         id="stop2089"
         offset="0"
         stop-color="#e5e5e5" />
      <stop
         id="stop2091"
         offset="1"
         stop-color="#c8c8c8" />
    </linearGradient>
    <linearGradient
       id="linearGradient2093"
       x1="0.98568889"
       x2="29.899477"
       xlink:href="#linearGradient2087"
       y1="22.2882"
       y2="22.2882"
       gradientTransform="matrix(1.5217783,0,0,0.65712593,0.62227749,-4.7328527)"
       gradientUnits="userSpaceOnUse" />
    <linearGradient
       id="linearGradient2206"
       x1="1.5905225"
       x2="28.311301"
       xlink:href="#linearGradient2200"
       y1="24.592789"
       y2="24.592789"
       gradientTransform="scale(1.5718105,0.63620901)"
       gradientUnits="userSpaceOnUse" />
    <linearGradient
       id="svg_11">
      <stop
         id="svg_13"
         offset="0"
         stop-color="#fffeff"
         stop-opacity="0.333333" />
      <stop
         id="svg_12"
         offset="1"
         stop-color="#fffeff"
         stop-opacity="0.215686" />
    </linearGradient>
    <linearGradient
       id="svg_3"
       x1="Infinity"
       x2="Infinity"
       xlink:href="#svg_11"
       y1="Infinity"
       y2="Infinity" />
    <linearGradient
       id="svg_8">
      <stop
         id="svg_10"
         offset="0"
         stop-color="#ef2929" />
      <stop
         id="svg_9"
         offset="1"
         stop-color="#cc0000" />
    </linearGradient>
    <linearGradient
       id="svg_6"
       x1="Infinity"
       x2="Infinity"
       xlink:href="#svg_8"
       y1="Infinity"
       y2="Infinity" />
    <symbol
       height="48"
       id="svg_14"
       width="48">
      <g
         id="g4033">
        <title
           id="title4030">background</title>
        <rect
           fill="none"
           height="402"
           id="svg_7"
           width="582"
           x="-1"
           y="-1" />
      </g>
      <g
         id="g4040">
        <title
           id="title4035">Layer 1</title>
        <path
           d="m44.32346,34.94292a10.45688,10.49976 0 1 1 -20.91377,0a10.45688,10.49976 0 1 1 20.91377,0z"
           fill="url(#svg_6)"
           id="svg_5"
           stroke="#a40000"
           stroke-dashoffset="0"
           stroke-linecap="round"
           stroke-linejoin="round"
           stroke-miterlimit="4"
           stroke-width="0.771837" />
        <path
           d="m43.3219,34.94373a9.48471,9.4976 0 1 1 -18.96943,0a9.48471,9.4976 0 1 1 18.96943,0z"
           fill="none"
           id="svg_4"
           opacity="0.3"
           stroke="#ffffff"
           stroke-dashoffset="0"
           stroke-linecap="round"
           stroke-linejoin="round"
           stroke-miterlimit="4"
           stroke-width="0.852113" />
        <path
           d="m43.82347,34.23858c0,5.13121 -5.27317,-2.96877 -9.51053,0.18306c-4.13851,3.07831 -10.48947,5.77549 -10.48947,0.64429c0,-5.25127 4.42833,-10.123 9.94407,-10.123c5.51573,0 10.05593,4.16446 10.05593,9.29565z"
           fill="url(#svg_3)"
           fill-rule="nonzero"
           id="svg_2"
           stroke-dashoffset="0"
           stroke-linecap="round"
           stroke-linejoin="round"
           stroke-miterlimit="4" />
      </g>
    </symbol>
    <symbol
       height="48"
       id="svg_20"
       width="48">
      <g
         id="g4046">
        <title
           id="title4043">background</title>
        <rect
           fill="none"
           height="402"
           id="svg_19"
           width="582"
           x="-1"
           y="-1" />
      </g>
      <g
         id="g4052">
        <title
           id="title4048">Layer 1</title>
        <path
           d="m25.34542,25.48027l7.79029,7.79029"
           fill="none"
           fill-rule="evenodd"
           id="svg_18"
           marker-end="none"
           marker-mid="none"
           marker-start="none"
           stroke="#ffffff"
           stroke-dashoffset="0"
           stroke-linecap="round"
           stroke-linejoin="round"
           stroke-miterlimit="4"
           stroke-width="2.567298" />
        <path
           d="m33.13551,25.48074l-7.79029,7.79029"
           fill="none"
           fill-rule="evenodd"
           id="svg_17"
           marker-end="none"
           marker-mid="none"
           marker-start="none"
           stroke="#ffffff"
           stroke-dashoffset="0"
           stroke-linecap="round"
           stroke-linejoin="round"
           stroke-miterlimit="4"
           stroke-width="2.567298" />
      </g>
    </symbol>
    <linearGradient
       inkscape:collect="always"
       xlink:href="#svg_8"
       id="linearGradient4134"
       x1="23.069248"
       y1="24.009817"
       x2="44.797688"
       y2="24.009817"
       gradientTransform="matrix(0.95430707,0,0,0.95808067,76.255278,-47.689285)"
       gradientUnits="userSpaceOnUse" />
    <linearGradient
       inkscape:collect="always"
       xlink:href="#svg_11"
       id="linearGradient4136"
       x1="19.207096"
       y1="30.937896"
       x2="35.331613"
       y2="30.937896"
       gradientTransform="matrix(1.1860102,0,0,0.77090667,78.37792,-31.13268)"
       gradientUnits="userSpaceOnUse" />
    <linearGradient
       inkscape:collect="always"
       xlink:href="#linearGradient5236"
       id="linearGradient5238"
       x1="44.92746"
       y1="23.131208"
       x2="1.1932261"
       y2="23.172043"
       gradientUnits="userSpaceOnUse" />
  </defs>
  <g
     class="layer"
     id="g4060">
    <title
       id="title4057">background</title>
    <rect
       fill="none"
       height="402"
       id="canvas_background"
       width="582"
       x="-1"
       y="-1" />
  </g>
  <g
     id="svg_16" />
  <g
     id="svg_22" />
  <g
     id="g5258">
    <g
       transform="matrix(1.0368404,0,0,1.1029322,-1.2183078,-6.4021912)"
       id="g5246">
      <path
         inkscape:connector-curvature="0"
         style="opacity:1;fill:#646464;fill-opacity:1;stroke:none;stroke-width:0.98016304"
         d="m 11.824219,16.759766 c -2.3365867,0 -4.2675784,1.929037 -4.2675784,4.265625 v 3.085937 H 3.8183594 c -1.3810175,0 -2.5429688,1.161951 -2.5429688,2.542969 v 8.333984 a 1.5693946,1.5693946 0 0 0 1.5703125,1.56836 H 45.798828 a 1.5693946,1.5693946 0 0 0 1.570313,-1.56836 v -8.333984 c 0,-1.381019 -1.161951,-2.542969 -2.542969,-2.542969 h -3.6875 v -3.085937 c 0,-2.336588 -1.930991,-4.265624 -4.267578,-4.265625 z m 0,1.568359 h 25.046875 c 1.49421,0 2.697265,1.203055 2.697265,2.697266 v 4.65625 h 5.257813 c 0.538753,0 0.972656,0.433901 0.972656,0.972656 v 8.333984 H 2.8457031 v -8.333984 c 0,-0.538755 0.4339021,-0.972656 0.9726563,-0.972656 h 5.3085937 v -4.65625 c 0,-1.494211 1.2030559,-2.697266 2.6972659,-2.697266 z"
         id="path5188" />
      <path
         sodipodi:type="inkscape:offset"
         inkscape:radius="0"
         inkscape:original="M 10.316406 12.296875 C 8.7919557 12.296875 7.5644531 13.524377 7.5644531 15.048828 L 7.5644531 19.798828 L 2.1484375 19.798828 C 1.5987798 19.798828 1.15625 20.241358 1.15625 20.791016 L 1.15625 29.292969 L 44.978516 29.292969 L 44.978516 20.791016 C 44.978516 20.241358 44.535985 19.798828 43.986328 19.798828 L 38.623047 19.798828 L 38.623047 15.048828 C 38.623047 13.524377 37.395545 12.296875 35.871094 12.296875 L 10.316406 12.296875 z "
         style="opacity:0.3;fill:url(#linearGradient5238);fill-opacity:1;stroke:none"
         id="rect5179"
         d="m 10.316406,12.296875 c -1.5244503,0 -2.7519529,1.227502 -2.7519529,2.751953 v 4.75 H 2.1484375 c -0.5496577,0 -0.9921875,0.44253 -0.9921875,0.992188 v 8.501953 h 43.822266 v -8.501953 c 0,-0.549658 -0.442531,-0.992188 -0.992188,-0.992188 h -5.363281 v -4.75 c 0,-1.524451 -1.227502,-2.751953 -2.751953,-2.751953 z"
         transform="matrix(0.98016306,0,0,0.98016306,1.7122375,6.2757866)" />
      <path
         inkscape:connector-curvature="0"
         transform="matrix(0.98016306,0,0,0.98016306,1.7122375,6.2757866)"
         style="opacity:0.4;fill:#000000;fill-opacity:1;stroke:none"
         d="m 10.316406,14.050781 c -0.5825061,0 -0.9980466,0.41554 -0.9980466,0.998047 v 4.75 A 1.7548925,1.7548925 0 0 1 7.5644531,21.552734 H 2.9101562 v 5.986328 H 43.224609 v -5.986328 h -4.601562 a 1.7548925,1.7548925 0 0 1 -1.753906,-1.753906 v -4.75 c 0,-0.582508 -0.415539,-0.998047 -0.998047,-0.998047 z"
         id="path5216" />
    </g>
    <g
       transform="matrix(1.1847061,0,0,1.1847061,-6.0044579,-4.2459958)"
       id="g5097">
      <circle
         style="fill:#e10000;fill-opacity:1;stroke:none;stroke-width:0.95612258"
         id="path5043"
         cx="29.040932"
         cy="30.358334"
         r="9.5939016" />
      <path
         inkscape:connector-curvature="0"
         style="fill:#aa0000;fill-opacity:1;stroke:none"
         d="M 29.040077,19.957006 A 10.402101,10.402101 0 0 0 18.639686,30.357397 10.402101,10.402101 0 0 0 29.040077,40.75974 10.402101,10.402101 0 0 0 39.442421,30.357397 10.402101,10.402101 0 0 0 29.040077,19.957006 Z m 0,0.833985 a 9.5671949,9.5671949 0 0 1 9.568359,9.566406 9.5671949,9.5671949 0 0 1 -9.568359,9.568359 9.5671949,9.5671949 0 0 1 -9.566406,-9.568359 9.5671949,9.5671949 0 0 1 9.566406,-9.566406 z"
         id="path5038" />
      <path
         style="fill:#ffffff;fill-opacity:1;stroke:none"
         d="m 23.805289,25.122708 c -0.54485,0.544854 -0.54485,1.421783 1e-5,1.966637 l 3.26898,3.268988 -3.26899,3.26899 c -0.54485,0.544854 -0.54485,1.421783 1e-5,1.966636 0.54485,0.544854 1.42178,0.544858 1.96664,4e-6 l 3.26899,-3.268989 3.26898,3.268987 c 0.54486,0.544854 1.42179,0.544857 1.96664,3e-6 0.54485,-0.544853 0.54486,-1.42179 0,-1.966644 l -3.26898,-3.268987 3.26898,-3.268983 c 0.54485,-0.544854 0.54486,-1.421791 0,-1.966645 -0.54485,-0.544853 -1.42179,-0.54485 -1.96664,4e-6 l -3.26898,3.268983 -3.26899,-3.268988 c -0.54486,-0.544854 -1.42179,-0.54485 -1.96665,4e-6 z"
         id="rect5025"
         inkscape:connector-curvature="0" />
      <path
         style="opacity:0.25;fill:#ffffff;fill-opacity:1;stroke:none"
         d="m 29.042026,20.79099 a 9.5671949,9.5671949 0 0 0 -9.568355,9.566406 9.5671949,9.5671949 0 0 0 9.568355,9.56836 9.5671949,9.5671949 0 0 0 9.56641,-9.56836 9.5671949,9.5671949 0 0 0 -9.56641,-9.566406 z m 0,0.951172 a 8.6164827,8.6164827 0 0 1 8.61523,8.615234 8.6164827,8.6164827 0 0 1 -8.61523,8.617188 8.6164827,8.6164827 0 0 1 -8.61719,-8.617188 8.6164827,8.6164827 0 0 1 8.61719,-8.615234 z"
         id="path5051"
         inkscape:connector-curvature="0" />
      <path
         style="opacity:0.353;fill:#ffffff;fill-opacity:1;stroke:none;stroke-width:1.10800517"
         d="m 38.622277,30.358333 c 0,5.291631 -5.167073,-2.475258 -9.581346,-0.01299 -4.621315,2.577752 -9.581345,5.304625 -9.581345,0.01299 0,-5.291631 4.289714,-9.581345 9.581345,-9.581345 5.291631,0 9.581346,4.289714 9.581346,9.581345 z"
         id="path5062"
         inkscape:connector-curvature="0"
         sodipodi:nodetypes="sssss" />
    </g>
  </g>
</svg>
